solid Cimatron Ltd
   facet normal 0 0 -1
      outer loop
         vertex 0 -313 35
         vertex 12 -325 35
         vertex 0 -325 35
      endloop
   endfacet
   facet normal 0 0 -1
      outer loop
         vertex 12 -313 35
         vertex 12 -325 35
         vertex 0 -313 35
      endloop
   endfacet
   facet normal 0 -1 0
      outer loop
         vertex 12 -325 35
         vertex 12 -325 50
         vertex 0 -325 35
      endloop
   endfacet
   facet normal -1 0 0
      outer loop
         vertex 0 -313 35
         vertex 0 -325 35
         vertex 0 -325 50
      endloop
   endfacet
   facet normal 1 0 0
      outer loop
         vertex 12 -325 35
         vertex 12 -313 35
         vertex 12 -325 50
      endloop
   endfacet
   facet normal 0 -1 0
      outer loop
         vertex 0 -313 23
         vertex 12 -313 35
         vertex 0 -313 35
      endloop
   endfacet
   facet normal 0 -1 0
      outer loop
         vertex 0 -325 35
         vertex 12 -325 50
         vertex 0 -325 50
      endloop
   endfacet
   facet normal -1 0 0
      outer loop
         vertex 0 325 50
         vertex 0 -313 35
         vertex 0 -325 50
      endloop
   endfacet
   facet normal 1 0 0
      outer loop
         vertex 12 -325 50
         vertex 12 -313 35
         vertex 12 313 35
      endloop
   endfacet
   facet normal 0 -1 0
      outer loop
         vertex 12 -313 23
         vertex 12 -313 35
         vertex 0 -313 23
      endloop
   endfacet
   facet normal -1 0 0
      outer loop
         vertex 0 313 35
         vertex 0 -313 23
         vertex 0 -313 35
      endloop
   endfacet
   facet normal 0 0 1
      outer loop
         vertex 12 325 50
         vertex 0 -325 50
         vertex 12 -325 50
      endloop
   endfacet
   facet normal -1 0 0
      outer loop
         vertex 0 325 50
         vertex 0 313 35
         vertex 0 -313 35
      endloop
   endfacet
   facet normal 0 0 1
      outer loop
         vertex 0 325 50
         vertex 0 -325 50
         vertex 12 325 50
      endloop
   endfacet
   facet normal 1 0 0
      outer loop
         vertex 12 313 35
         vertex 12 -313 35
         vertex 12 313 23
      endloop
   endfacet
   facet normal 1 0 0
      outer loop
         vertex 12 325 50
         vertex 12 -325 50
         vertex 12 313 35
      endloop
   endfacet
   facet normal 1 0 0
      outer loop
         vertex 12 313 23
         vertex 12 -313 35
         vertex 12 -313 23
      endloop
   endfacet
   facet normal 0 0 1
      outer loop
         vertex 0 -325 23
         vertex 12 -313 23
         vertex 0 -313 23
      endloop
   endfacet
   facet normal -1 0 0
      outer loop
         vertex 0 313 23
         vertex 0 -313 23
         vertex 0 313 35
      endloop
   endfacet
   facet normal -1 0 0
      outer loop
         vertex 0 325 50
         vertex 0 325 35
         vertex 0 313 35
      endloop
   endfacet
   facet normal 0 1 0
      outer loop
         vertex 12 325 35
         vertex 0 325 50
         vertex 12 325 50
      endloop
   endfacet
   facet normal 0 1 0
      outer loop
         vertex 12 313 35
         vertex 12 313 23
         vertex 0 313 35
      endloop
   endfacet
   facet normal 1 0 0
      outer loop
         vertex 12 325 35
         vertex 12 325 50
         vertex 12 313 35
      endloop
   endfacet
   facet normal 1 0 0
      outer loop
         vertex 12 313 8
         vertex 12 313 23
         vertex 12 -313 23
      endloop
   endfacet
   facet normal 0 0 1
      outer loop
         vertex 12 -325 23
         vertex 12 -313 23
         vertex 0 -325 23
      endloop
   endfacet
   facet normal -1 0 0
      outer loop
         vertex 0 -325 23
         vertex 0 -313 23
         vertex 0 -325 8
      endloop
   endfacet
   facet normal -1 0 0
      outer loop
         vertex 0 -313 8
         vertex 0 -313 23
         vertex 0 313 23
      endloop
   endfacet
   facet normal 0 1 0
      outer loop
         vertex 0 313 35
         vertex 12 313 23
         vertex 0 313 23
      endloop
   endfacet
   facet normal 0 1 0
      outer loop
         vertex 0 325 35
         vertex 0 325 50
         vertex 12 325 35
      endloop
   endfacet
   facet normal 0 0 -1
      outer loop
         vertex 0 325 35
         vertex 12 313 35
         vertex 0 313 35
      endloop
   endfacet
   facet normal 0 0 -1
      outer loop
         vertex 12 325 35
         vertex 12 313 35
         vertex 0 325 35
      endloop
   endfacet
   facet normal 1 0 0
      outer loop
         vertex 12 313 23
         vertex 12 313 8
         vertex 12 325 8
      endloop
   endfacet
   facet normal 1 0 0
      outer loop
         vertex 12 -313 23
         vertex 12 -313 8
         vertex 12 313 8
      endloop
   endfacet
   facet normal 1 0 0
      outer loop
         vertex 12 -325 23
         vertex 12 -313 8
         vertex 12 -313 23
      endloop
   endfacet
   facet normal 0 -1 0
      outer loop
         vertex 0 -325 23
         vertex 0 -325 8
         vertex 12 -325 23
      endloop
   endfacet
   facet normal -1 0 0
      outer loop
         vertex 0 -325 8
         vertex 0 -313 23
         vertex 0 -313 8
      endloop
   endfacet
   facet normal -1 0 0
      outer loop
         vertex 0 313 23
         vertex 0 313 8
         vertex 0 -313 8
      endloop
   endfacet
   facet normal 0 0 1
      outer loop
         vertex 12 313 23
         vertex 12 325 23
         vertex 0 313 23
      endloop
   endfacet
   facet normal 0 0 -1
      outer loop
         vertex 12 325 8
         vertex 12 313 8
         vertex 0 325 8
      endloop
   endfacet
   facet normal 1 0 0
      outer loop
         vertex 12 325 23
         vertex 12 313 23
         vertex 12 325 8
      endloop
   endfacet
   facet normal 1 0 0
      outer loop
         vertex 12 313 8
         vertex 12 -313 8
         vertex 12 313 -8
      endloop
   endfacet
   facet normal 1 0 0
      outer loop
         vertex 12 -325 8
         vertex 12 -313 8
         vertex 12 -325 23
      endloop
   endfacet
   facet normal 0 -1 0
      outer loop
         vertex 12 -325 23
         vertex 0 -325 8
         vertex 12 -325 8
      endloop
   endfacet
   facet normal 0 0 -1
      outer loop
         vertex 0 -313 8
         vertex 12 -325 8
         vertex 0 -325 8
      endloop
   endfacet
   facet normal -1 0 0
      outer loop
         vertex 0 313 8
         vertex 0 313 23
         vertex 0 325 23
      endloop
   endfacet
   facet normal -1 0 0
      outer loop
         vertex 0 313 8
         vertex 0 -313 -8
         vertex 0 -313 8
      endloop
   endfacet
   facet normal 0 0 1
      outer loop
         vertex 0 313 23
         vertex 12 325 23
         vertex 0 325 23
      endloop
   endfacet
   facet normal 0 0 -1
      outer loop
         vertex 0 325 8
         vertex 12 313 8
         vertex 0 313 8
      endloop
   endfacet
   facet normal 0 1 0
      outer loop
         vertex 0 325 8
         vertex 0 325 23
         vertex 12 325 8
      endloop
   endfacet
   facet normal 0 1 0
      outer loop
         vertex 12 325 8
         vertex 0 325 23
         vertex 12 325 23
      endloop
   endfacet
   facet normal 1 0 0
      outer loop
         vertex 12 313 -8
         vertex 12 -313 8
         vertex 12 -313 -8
      endloop
   endfacet
   facet normal 0 1 0
      outer loop
         vertex 12 313 8
         vertex 12 313 -8
         vertex 0 313 8
      endloop
   endfacet
   facet normal 0 0 -1
      outer loop
         vertex 12 -313 8
         vertex 12 -325 8
         vertex 0 -313 8
      endloop
   endfacet
   facet normal -1 0 0
      outer loop
         vertex 0 325 8
         vertex 0 313 8
         vertex 0 325 23
      endloop
   endfacet
   facet normal -1 0 0
      outer loop
         vertex 0 313 -8
         vertex 0 -313 -8
         vertex 0 313 8
      endloop
   endfacet
   facet normal 0 -1 0
      outer loop
         vertex 0 -313 -8
         vertex 12 -313 8
         vertex 0 -313 8
      endloop
   endfacet
   facet normal 0 -1 0
      outer loop
         vertex 12 -313 -8
         vertex 12 -313 8
         vertex 0 -313 -8
      endloop
   endfacet
   facet normal 1 0 0
      outer loop
         vertex 12 -313 -8
         vertex 12 313 -23
         vertex 12 313 -8
      endloop
   endfacet
   facet normal 0 1 0
      outer loop
         vertex 0 313 8
         vertex 12 313 -8
         vertex 0 313 -8
      endloop
   endfacet
   facet normal -1 0 0
      outer loop
         vertex 0 313 -8
         vertex 0 -313 -23
         vertex 0 -313 -8
      endloop
   endfacet
   facet normal 0 0 1
      outer loop
         vertex 0 -325 -8
         vertex 12 -313 -8
         vertex 0 -313 -8
      endloop
   endfacet
   facet normal 1 0 0
      outer loop
         vertex 12 313 -23
         vertex 12 -313 -8
         vertex 12 -313 -23
      endloop
   endfacet
   facet normal 1 0 0
      outer loop
         vertex 12 313 -8
         vertex 12 313 -23
         vertex 12 325 -23
      endloop
   endfacet
   facet normal 0 0 1
      outer loop
         vertex 12 313 -8
         vertex 12 325 -8
         vertex 0 313 -8
      endloop
   endfacet
   facet normal -1 0 0
      outer loop
         vertex 0 313 -23
         vertex 0 -313 -23
         vertex 0 313 -8
      endloop
   endfacet
   facet normal -1 0 0
      outer loop
         vertex 0 -313 -23
         vertex 0 -325 -23
         vertex 0 -313 -8
      endloop
   endfacet
   facet normal 0 0 1
      outer loop
         vertex 12 -325 -8
         vertex 12 -313 -8
         vertex 0 -325 -8
      endloop
   endfacet
   facet normal -1 0 0
      outer loop
         vertex 0 -313 -8
         vertex 0 -325 -23
         vertex 0 -325 -8
      endloop
   endfacet
   facet normal 1 0 0
      outer loop
         vertex 12 -313 -8
         vertex 12 -325 -8
         vertex 12 -313 -23
      endloop
   endfacet
   facet normal 1 0 0
      outer loop
         vertex 12 313 -35
         vertex 12 313 -23
         vertex 12 -313 -23
      endloop
   endfacet
   facet normal 0 0 -1
      outer loop
         vertex 12 325 -23
         vertex 12 313 -23
         vertex 0 325 -23
      endloop
   endfacet
   facet normal 1 0 0
      outer loop
         vertex 12 325 -8
         vertex 12 313 -8
         vertex 12 325 -23
      endloop
   endfacet
   facet normal 0 0 1
      outer loop
         vertex 0 313 -8
         vertex 12 325 -8
         vertex 0 325 -8
      endloop
   endfacet
   facet normal -1 0 0
      outer loop
         vertex 0 -313 -35
         vertex 0 -313 -23
         vertex 0 313 -23
      endloop
   endfacet
   facet normal -1 0 0
      outer loop
         vertex 0 325 -8
         vertex 0 313 -23
         vertex 0 313 -8
      endloop
   endfacet
   facet normal 0 0 -1
      outer loop
         vertex 0 -313 -23
         vertex 12 -325 -23
         vertex 0 -325 -23
      endloop
   endfacet
   facet normal 0 -1 0
      outer loop
         vertex 0 -325 -8
         vertex 0 -325 -23
         vertex 12 -325 -8
      endloop
   endfacet
   facet normal 1 0 0
      outer loop
         vertex 12 -313 -23
         vertex 12 -325 -8
         vertex 12 -325 -23
      endloop
   endfacet
   facet normal 0 1 0
      outer loop
         vertex 12 313 -23
         vertex 12 313 -35
         vertex 0 313 -23
      endloop
   endfacet
   facet normal 1 0 0
      outer loop
         vertex 12 313 -35
         vertex 12 -313 -23
         vertex 12 -313 -35
      endloop
   endfacet
   facet normal 0 0 -1
      outer loop
         vertex 0 325 -23
         vertex 12 313 -23
         vertex 0 313 -23
      endloop
   endfacet
   facet normal 0 1 0
      outer loop
         vertex 0 325 -23
         vertex 0 325 -8
         vertex 12 325 -23
      endloop
   endfacet
   facet normal 0 1 0
      outer loop
         vertex 12 325 -23
         vertex 0 325 -8
         vertex 12 325 -8
      endloop
   endfacet
   facet normal 0 -1 0
      outer loop
         vertex 0 -313 -35
         vertex 12 -313 -23
         vertex 0 -313 -23
      endloop
   endfacet
   facet normal -1 0 0
      outer loop
         vertex 0 313 -35
         vertex 0 -313 -35
         vertex 0 313 -23
      endloop
   endfacet
   facet normal -1 0 0
      outer loop
         vertex 0 325 -8
         vertex 0 325 -23
         vertex 0 313 -23
      endloop
   endfacet
   facet normal 0 0 -1
      outer loop
         vertex 12 -313 -23
         vertex 12 -325 -23
         vertex 0 -313 -23
      endloop
   endfacet
   facet normal 0 -1 0
      outer loop
         vertex 12 -325 -8
         vertex 0 -325 -23
         vertex 12 -325 -23
      endloop
   endfacet
   facet normal 0 1 0
      outer loop
         vertex 0 313 -23
         vertex 12 313 -35
         vertex 0 313 -35
      endloop
   endfacet
   facet normal 0 -1 0
      outer loop
         vertex 12 -313 -35
         vertex 12 -313 -23
         vertex 0 -313 -35
      endloop
   endfacet
   facet normal 1 0 0
      outer loop
         vertex 12 325 -50
         vertex 12 313 -35
         vertex 12 -313 -35
      endloop
   endfacet
   facet normal -1 0 0
      outer loop
         vertex 0 313 -35
         vertex 0 -325 -50
         vertex 0 -313 -35
      endloop
   endfacet
   facet normal 0 0 1
      outer loop
         vertex 12 313 -35
         vertex 12 325 -35
         vertex 0 313 -35
      endloop
   endfacet
   facet normal 0 0 1
      outer loop
         vertex 0 -325 -35
         vertex 12 -313 -35
         vertex 0 -313 -35
      endloop
   endfacet
   facet normal 1 0 0
      outer loop
         vertex 12 325 -50
         vertex 12 325 -35
         vertex 12 313 -35
      endloop
   endfacet
   facet normal 1 0 0
      outer loop
         vertex 12 325 -50
         vertex 12 -313 -35
         vertex 12 -325 -50
      endloop
   endfacet
   facet normal -1 0 0
      outer loop
         vertex 0 325 -50
         vertex 0 -325 -50
         vertex 0 313 -35
      endloop
   endfacet
   facet normal -1 0 0
      outer loop
         vertex 0 -313 -35
         vertex 0 -325 -50
         vertex 0 -325 -35
      endloop
   endfacet
   facet normal 0 0 1
      outer loop
         vertex 0 313 -35
         vertex 12 325 -35
         vertex 0 325 -35
      endloop
   endfacet
   facet normal 0 0 1
      outer loop
         vertex 12 -325 -35
         vertex 12 -313 -35
         vertex 0 -325 -35
      endloop
   endfacet
   facet normal 0 1 0
      outer loop
         vertex 12 325 -35
         vertex 12 325 -50
         vertex 0 325 -35
      endloop
   endfacet
   facet normal 1 0 0
      outer loop
         vertex 12 -313 -35
         vertex 12 -325 -35
         vertex 12 -325 -50
      endloop
   endfacet
   facet normal 0 0 -1
      outer loop
         vertex 12 -325 -50
         vertex 0 325 -50
         vertex 12 325 -50
      endloop
   endfacet
   facet normal 0 0 -1
      outer loop
         vertex 0 -325 -50
         vertex 0 325 -50
         vertex 12 -325 -50
      endloop
   endfacet
   facet normal -1 0 0
      outer loop
         vertex 0 325 -35
         vertex 0 325 -50
         vertex 0 313 -35
      endloop
   endfacet
   facet normal 0 -1 0
      outer loop
         vertex 0 -325 -35
         vertex 0 -325 -50
         vertex 12 -325 -35
      endloop
   endfacet
   facet normal 0 1 0
      outer loop
         vertex 0 325 -35
         vertex 12 325 -50
         vertex 0 325 -50
      endloop
   endfacet
   facet normal 0 -1 0
      outer loop
         vertex 12 -325 -35
         vertex 0 -325 -50
         vertex 12 -325 -50
      endloop
   endfacet
endsolid
